<svg xmlns="http://www.w3.org/2000/svg" width="28" height="82"><path d="M24 46c-3 2-6 4-10 4s-7-1-10-4-4-6-4-10V23C0 16 6 9 13 9c0-3-1-5-2-5L8 3 7 2l1-2h1a6 6 0 0 1 4 2c1 1 2 3 2 7 4 0 7 2 9 4 3 3 4 6 4 10v13c0 4-2 7-4 10zm1-23c0-3-1-6-3-8s-4-4-7-4h-1-1c-3 0-5 2-7 4s-3 5-3 8v13c0 3 1 6 3 8s5 3 8 3c6 0 11-5 11-11V23zm-8 3l-3 1-3-1-1-2v-6l1-2 3-1 3 1 1 2v6l-1 2zm-2-8h-2v6l1 1 1-1v-6zM6 57a1 1 0 1 1 1-1l7 7 7-7a1 1 0 1 1 1 1l-7 7-1 2-1-2-7-7" fill="#FFF"/><path d="M6 65a1 1 0 1 1 1-1l7 7 7-7a1 1 0 1 1 1 1l-7 7-1 2-1-2-7-7" fill="#FFF"/></svg>