<?xml version="1.0" encoding="utf-8"?>
<svg xmlns="http://www.w3.org/2000/svg"
	xmlns:xlink="http://www.w3.org/1999/xlink"
	width="774px" height="96px" viewBox="0 0 774 96">
<path fillRule="evenodd" d="M 0.73 95.68C 0.54 95.89 0.23 95.9 0.02 95.71-0.18 95.53-0.19 95.21-0.01 95.01 0.18 94.8 0.5 94.79 0.7 94.97 0.91 95.16 0.92 95.47 0.74 95.68 0.74 95.68 0.73 95.68 0.73 95.68M 4.24 92.03C 4.04 92.22 3.73 92.22 3.53 92.03 3.33 91.84 3.33 91.52 3.53 91.32 3.55 91.3 3.58 91.27 3.61 91.24 3.8 91.04 4.12 91.04 4.31 91.24 4.51 91.43 4.51 91.75 4.32 91.94 4.32 91.94 4.24 92.03 4.24 92.03M 7.85 88.45C 7.65 88.65 7.33 88.64 7.14 88.44 6.95 88.25 6.95 87.93 7.15 87.74 7.18 87.71 7.2 87.69 7.23 87.66 7.43 87.47 7.75 87.47 7.94 87.67 8.13 87.87 8.12 88.19 7.93 88.38 7.93 88.38 7.85 88.45 7.85 88.45M 11.55 84.94C 11.35 85.13 11.03 85.11 10.84 84.91 10.65 84.71 10.66 84.39 10.86 84.21 10.89 84.18 10.92 84.16 10.94 84.13 11.15 83.94 11.46 83.96 11.65 84.16 11.84 84.36 11.83 84.68 11.63 84.86 11.63 84.86 11.55 84.94 11.55 84.94M 15.29 81.5C 15.09 81.68 14.77 81.67 14.58 81.46 14.4 81.26 14.41 80.94 14.62 80.76 14.65 80.73 14.67 80.71 14.7 80.68 14.91 80.5 15.22 80.51 15.41 80.72 15.59 80.92 15.58 81.24 15.37 81.43 15.37 81.43 15.29 81.5 15.29 81.5M 19.1 78.11C 18.89 78.29 18.57 78.27 18.39 78.07 18.21 77.86 18.23 77.54 18.44 77.36 18.46 77.34 18.49 77.31 18.52 77.29 18.73 77.11 19.04 77.13 19.22 77.33 19.41 77.54 19.39 77.86 19.18 78.04 19.18 78.04 19.1 78.11 19.1 78.11M 22.95 74.78C 22.74 74.96 22.43 74.94 22.25 74.72 22.07 74.51 22.1 74.2 22.31 74.02 22.33 74 22.36 73.97 22.39 73.95 22.6 73.77 22.92 73.8 23.1 74.01 23.27 74.22 23.25 74.53 23.04 74.71 23.04 74.71 22.95 74.78 22.95 74.78M 26.87 71.51C 26.65 71.68 26.34 71.65 26.16 71.44 25.99 71.23 26.02 70.91 26.23 70.73 26.26 70.71 26.29 70.69 26.31 70.67 26.53 70.49 26.84 70.52 27.02 70.73 27.19 70.95 27.16 71.26 26.95 71.44 26.95 71.44 26.87 71.51 26.87 71.51M 30.82 68.29C 30.6 68.47 30.29 68.43 30.11 68.22 29.94 68 29.98 67.69 30.19 67.51 30.22 67.49 30.25 67.47 30.28 67.44 30.49 67.27 30.81 67.31 30.98 67.52 31.15 67.74 31.12 68.05 30.9 68.22 30.9 68.22 30.82 68.29 30.82 68.29M 34.81 65.14C 34.6 65.31 34.28 65.27 34.11 65.05 33.94 64.83 33.98 64.52 34.2 64.35 34.23 64.33 34.26 64.3 34.29 64.28 34.51 64.11 34.82 64.15 34.99 64.37 35.16 64.59 35.12 64.9 34.9 65.07 34.9 65.07 34.81 65.14 34.81 65.14M 38.86 62.03C 38.64 62.2 38.33 62.16 38.16 61.93 38 61.71 38.04 61.4 38.26 61.23 38.29 61.21 38.32 61.19 38.35 61.17 38.57 61 38.88 61.04 39.05 61.27 39.22 61.49 39.17 61.8 38.95 61.97 38.95 61.97 38.86 62.03 38.86 62.03M 42.95 58.99C 42.72 59.16 42.41 59.11 42.25 58.89 42.08 58.66 42.13 58.35 42.36 58.19 42.39 58.17 42.41 58.14 42.44 58.12 42.67 57.96 42.98 58.01 43.14 58.23 43.31 58.45 43.26 58.77 43.04 58.93 43.04 58.93 42.95 58.99 42.95 58.99M 47.08 56.01C 46.86 56.17 46.54 56.11 46.38 55.89 46.22 55.66 46.28 55.35 46.5 55.19 46.53 55.17 46.56 55.15 46.59 55.13 46.82 54.97 47.13 55.02 47.29 55.25 47.45 55.47 47.4 55.78 47.17 55.94 47.17 55.94 47.08 56.01 47.08 56.01M 51.25 53.08C 51.03 53.24 50.71 53.18 50.56 52.96 50.4 52.73 50.46 52.42 50.69 52.26 50.72 52.24 50.75 52.22 50.78 52.2 51 52.04 51.31 52.1 51.47 52.33 51.63 52.55 51.57 52.87 51.34 53.02 51.34 53.02 51.25 53.08 51.25 53.08M 55.47 50.22C 55.24 50.38 54.93 50.31 54.77 50.08 54.62 49.85 54.68 49.54 54.91 49.39 54.94 49.37 54.97 49.35 55 49.33 55.23 49.18 55.54 49.24 55.7 49.47 55.85 49.7 55.79 50.01 55.56 50.16 55.56 50.16 55.47 50.22 55.47 50.22M 59.73 47.42C 59.5 47.57 59.19 47.5 59.04 47.27 58.89 47.04 58.95 46.73 59.18 46.58 59.21 46.56 59.25 46.54 59.28 46.52 59.51 46.37 59.82 46.43 59.97 46.67 60.12 46.9 60.05 47.21 59.82 47.36 59.82 47.36 59.73 47.42 59.73 47.42M 64.02 44.68C 63.79 44.83 63.48 44.76 63.33 44.52 63.19 44.29 63.26 43.98 63.49 43.83 63.52 43.81 63.55 43.79 63.58 43.78 63.82 43.63 64.13 43.7 64.27 43.93 64.42 44.17 64.35 44.48 64.12 44.62 64.12 44.62 64.02 44.68 64.02 44.68M 68.36 42.01C 68.12 42.15 67.81 42.08 67.67 41.84 67.53 41.6 67.6 41.3 67.84 41.15 67.87 41.13 67.9 41.12 67.93 41.1 68.17 40.95 68.48 41.03 68.62 41.27 68.76 41.5 68.69 41.81 68.45 41.95 68.45 41.95 68.36 42.01 68.36 42.01M 72.74 39.4C 72.5 39.54 72.19 39.46 72.05 39.22 71.91 38.98 71.99 38.68 72.23 38.54 72.26 38.52 72.29 38.5 72.33 38.48 72.57 38.34 72.87 38.42 73.01 38.66 73.15 38.9 73.07 39.21 72.83 39.35 72.83 39.35 72.74 39.4 72.74 39.4M 77.16 36.86C 76.92 37 76.61 36.91 76.48 36.67 76.34 36.43 76.43 36.13 76.67 35.99 76.7 35.97 76.73 35.95 76.76 35.94 77 35.8 77.31 35.89 77.44 36.13 77.58 36.37 77.49 36.67 77.25 36.81 77.25 36.81 77.16 36.86 77.16 36.86M 81.61 34.39C 81.37 34.53 81.07 34.44 80.93 34.19 80.8 33.95 80.89 33.65 81.13 33.51 81.17 33.5 81.2 33.48 81.23 33.46 81.47 33.33 81.78 33.42 81.91 33.66 82.04 33.91 81.95 34.21 81.71 34.34 81.71 34.34 81.61 34.39 81.61 34.39M 86.1 32C 85.86 32.13 85.56 32.03 85.43 31.79 85.3 31.54 85.4 31.24 85.64 31.11 85.67 31.09 85.71 31.08 85.74 31.06 85.98 30.93 86.29 31.03 86.41 31.27 86.54 31.52 86.45 31.82 86.2 31.95 86.2 31.95 86.1 32 86.1 32M 90.64 29.67C 90.39 29.8 90.09 29.7 89.97 29.45 89.84 29.21 89.94 28.9 90.19 28.78 90.22 28.76 90.25 28.75 90.29 28.73 90.53 28.61 90.83 28.71 90.96 28.95 91.08 29.2 90.98 29.5 90.73 29.63 90.73 29.63 90.64 29.67 90.64 29.67M 95.21 27.43C 94.96 27.55 94.66 27.44 94.54 27.19 94.42 26.94 94.53 26.64 94.77 26.53 94.81 26.51 94.84 26.49 94.87 26.48 95.12 26.36 95.42 26.46 95.54 26.71 95.66 26.96 95.56 27.26 95.31 27.38 95.31 27.38 95.21 27.43 95.21 27.43M 99.82 25.26C 99.57 25.37 99.27 25.26 99.15 25.01 99.04 24.76 99.15 24.46 99.4 24.35 99.43 24.33 99.47 24.32 99.5 24.3 99.75 24.19 100.05 24.3 100.16 24.55 100.28 24.8 100.17 25.09 99.92 25.21 99.92 25.21 99.82 25.26 99.82 25.26M 104.46 23.16C 104.21 23.28 103.92 23.16 103.8 22.91 103.69 22.65 103.81 22.36 104.06 22.25 104.09 22.23 104.13 22.22 104.16 22.2 104.41 22.09 104.71 22.21 104.82 22.46 104.93 22.71 104.82 23.01 104.56 23.12 104.56 23.12 104.46 23.16 104.46 23.16M 109.14 21.16C 108.89 21.26 108.59 21.14 108.49 20.89 108.38 20.63 108.5 20.34 108.76 20.23 108.79 20.22 108.82 20.21 108.86 20.19 109.11 20.08 109.4 20.2 109.51 20.46 109.62 20.71 109.5 21.01 109.24 21.11 109.24 21.11 109.14 21.16 109.14 21.16M 113.86 19.23C 113.6 19.33 113.31 19.21 113.21 18.95 113.1 18.7 113.23 18.41 113.49 18.3 113.52 18.29 113.55 18.28 113.59 18.26 113.84 18.16 114.13 18.29 114.24 18.54 114.34 18.8 114.21 19.09 113.96 19.19 113.96 19.19 113.86 19.23 113.86 19.23M 118.6 17.4C 118.34 17.49 118.06 17.36 117.96 17.1 117.86 16.84 117.99 16.56 118.25 16.46 118.28 16.45 118.32 16.43 118.35 16.42 118.61 16.32 118.9 16.45 119 16.71 119.09 16.97 118.96 17.26 118.71 17.36 118.71 17.36 118.6 17.4 118.6 17.4M 123.38 15.65C 123.12 15.74 122.84 15.6 122.75 15.34 122.65 15.08 122.79 14.8 123.05 14.7 123.08 14.69 123.12 14.68 123.15 14.67 123.41 14.57 123.7 14.71 123.79 14.97 123.88 15.23 123.75 15.52 123.49 15.61 123.49 15.61 123.38 15.65 123.38 15.65M 128.2 13.99C 127.94 14.08 127.65 13.93 127.56 13.67 127.48 13.41 127.62 13.13 127.88 13.04 127.92 13.03 127.95 13.02 127.98 13.01 128.25 12.92 128.53 13.06 128.62 13.32 128.7 13.58 128.56 13.87 128.3 13.95 128.3 13.95 128.2 13.99 128.2 13.99M 133.04 12.42C 132.78 12.51 132.5 12.36 132.41 12.1 132.33 11.83 132.48 11.55 132.74 11.47 132.78 11.46 132.81 11.45 132.85 11.44 133.11 11.35 133.39 11.5 133.47 11.77 133.56 12.03 133.41 12.31 133.15 12.39 133.15 12.39 133.04 12.42 133.04 12.42M 137.92 10.96C 137.65 11.03 137.37 10.88 137.3 10.61 137.22 10.35 137.37 10.07 137.64 10 137.67 9.98 137.71 9.97 137.74 9.96 138.01 9.89 138.28 10.04 138.36 10.31 138.44 10.57 138.29 10.85 138.02 10.93 138.02 10.93 137.92 10.96 137.92 10.96M 142.82 9.59C 142.55 9.66 142.28 9.5 142.2 9.23 142.13 8.97 142.29 8.69 142.56 8.62 142.59 8.61 142.63 8.6 142.66 8.59 142.93 8.52 143.21 8.68 143.28 8.94 143.35 9.21 143.19 9.49 142.92 9.56 142.92 9.56 142.82 9.59 142.82 9.59M 147.75 8.32C 147.48 8.38 147.21 8.22 147.14 7.95 147.07 7.68 147.24 7.41 147.51 7.34 147.54 7.34 147.58 7.33 147.61 7.32 147.88 7.25 148.15 7.42 148.22 7.68 148.28 7.95 148.12 8.22 147.85 8.29 147.85 8.29 147.75 8.32 147.75 8.32M 152.7 7.15C 152.43 7.21 152.16 7.04 152.1 6.77 152.04 6.5 152.21 6.23 152.48 6.17 152.52 6.16 152.55 6.16 152.59 6.15 152.86 6.09 153.13 6.26 153.19 6.53 153.25 6.8 153.08 7.06 152.81 7.12 152.81 7.12 152.7 7.15 152.7 7.15M 157.68 6.09C 157.41 6.14 157.14 5.97 157.09 5.69 157.03 5.42 157.21 5.16 157.48 5.11 157.51 5.1 157.55 5.09 157.59 5.08 157.86 5.03 158.12 5.2 158.18 5.48 158.23 5.75 158.06 6.01 157.78 6.06 157.78 6.06 157.68 6.09 157.68 6.09M 162.68 5.13C 162.4 5.18 162.14 5 162.09 4.73 162.05 4.46 162.23 4.2 162.5 4.15 162.53 4.14 162.57 4.13 162.61 4.13 162.88 4.08 163.14 4.26 163.19 4.53 163.24 4.8 163.06 5.06 162.78 5.11 162.78 5.11 162.68 5.13 162.68 5.13M 167.69 4.29C 167.42 4.33 167.16 4.14 167.12 3.87 167.08 3.6 167.26 3.34 167.54 3.3 167.57 3.29 167.61 3.29 167.65 3.28 167.92 3.24 168.18 3.42 168.22 3.7 168.26 3.97 168.07 4.23 167.8 4.27 167.8 4.27 167.69 4.29 167.69 4.29M 172.73 3.55C 172.45 3.59 172.2 3.4 172.17 3.12 172.13 2.85 172.32 2.6 172.59 2.56 172.63 2.56 172.67 2.55 172.7 2.55 172.98 2.51 173.23 2.7 173.27 2.97 173.3 3.25 173.11 3.5 172.84 3.54 172.84 3.54 172.73 3.55 172.73 3.55M 177.78 2.93C 177.5 2.96 177.26 2.76 177.22 2.49 177.19 2.21 177.39 1.97 177.67 1.94 177.7 1.93 177.74 1.93 177.78 1.92 178.05 1.89 178.3 2.09 178.33 2.37 178.36 2.64 178.16 2.89 177.89 2.92 177.89 2.92 177.78 2.93 177.78 2.93M 182.84 2.42C 182.56 2.45 182.32 2.25 182.3 1.97 182.27 1.7 182.48 1.45 182.75 1.43 182.79 1.43 182.82 1.42 182.86 1.42 183.14 1.39 183.38 1.6 183.4 1.87 183.43 2.15 183.22 2.39 182.95 2.41 182.95 2.41 182.84 2.42 182.84 2.42M 187.91 2.03C 187.64 2.05 187.4 1.84 187.38 1.57 187.36 1.29 187.57 1.05 187.85 1.04 187.88 1.03 187.92 1.03 187.96 1.03 188.23 1.01 188.47 1.22 188.49 1.5 188.51 1.77 188.3 2.01 188.02 2.03 188.02 2.03 187.91 2.03 187.91 2.03M 192.99 1.76C 192.71 1.77 192.48 1.56 192.47 1.28 192.46 1.01 192.67 0.78 192.95 0.76 192.99 0.76 193.02 0.76 193.06 0.76 193.33 0.75 193.57 0.96 193.58 1.24 193.59 1.51 193.38 1.75 193.1 1.76 193.1 1.76 192.99 1.76 192.99 1.76M 198.07 1.61C 197.8 1.61 197.57 1.4 197.57 1.12 197.56 0.84 197.78 0.61 198.06 0.61 198.09 0.61 198.13 0.61 198.17 0.61 198.44 0.6 198.67 0.82 198.67 1.1 198.68 1.38 198.46 1.6 198.18 1.61 198.18 1.61 198.07 1.61 198.07 1.61M 203.16 1.58C 202.88 1.58 202.66 1.35 202.66 1.07 202.66 0.8 202.89 0.58 203.17 0.58 203.2 0.58 203.24 0.58 203.28 0.58 203.55 0.58 203.77 0.8 203.77 1.08 203.77 1.36 203.55 1.58 203.27 1.58 203.27 1.58 203.16 1.58 203.16 1.58M 208.24 1.66C 207.97 1.66 207.75 1.43 207.76 1.15 207.77 0.87 208 0.66 208.27 0.67 208.31 0.67 208.35 0.67 208.38 0.67 208.66 0.68 208.88 0.91 208.87 1.18 208.86 1.46 208.63 1.68 208.35 1.67 208.35 1.67 208.24 1.66 208.24 1.66M 213.33 1.87C 213.05 1.86 212.84 1.62 212.85 1.35 212.87 1.07 213.1 0.86 213.38 0.88 213.42 0.88 213.45 0.88 213.49 0.88 213.76 0.9 213.98 1.13 213.96 1.41 213.95 1.68 213.71 1.89 213.44 1.88 213.44 1.88 213.33 1.87 213.33 1.87M 218.4 2.2C 218.12 2.18 217.92 1.94 217.94 1.67 217.96 1.39 218.2 1.19 218.48 1.21 218.51 1.21 218.55 1.21 218.59 1.22 218.86 1.24 219.07 1.48 219.05 1.75 219.03 2.03 218.78 2.23 218.51 2.21 218.51 2.21 218.4 2.2 218.4 2.2M 223.47 2.66C 223.19 2.63 222.99 2.38 223.02 2.11 223.05 1.83 223.29 1.63 223.57 1.66 223.6 1.67 223.64 1.67 223.68 1.67 223.95 1.7 224.15 1.95 224.12 2.22 224.09 2.5 223.85 2.7 223.57 2.67 223.57 2.67 223.47 2.66 223.47 2.66M 228.52 3.23C 228.24 3.2 228.05 2.95 228.08 2.67 228.12 2.4 228.37 2.2 228.64 2.24 228.68 2.24 228.72 2.25 228.75 2.25 229.03 2.29 229.22 2.54 229.19 2.81 229.15 3.08 228.9 3.28 228.63 3.24 228.63 3.24 228.52 3.23 228.52 3.23M 233.56 3.93C 233.28 3.88 233.09 3.63 233.14 3.36 233.18 3.08 233.43 2.9 233.7 2.94 233.74 2.94 233.78 2.95 233.81 2.95 234.09 2.99 234.27 3.25 234.23 3.52 234.19 3.79 233.94 3.98 233.66 3.94 233.66 3.94 233.56 3.93 233.56 3.93M 238.58 4.74C 238.3 4.69 238.12 4.43 238.17 4.16 238.22 3.89 238.48 3.71 238.75 3.76 238.78 3.76 238.82 3.77 238.86 3.77 239.13 3.82 239.31 4.08 239.26 4.35 239.21 4.63 238.96 4.81 238.68 4.76 238.68 4.76 238.58 4.74 238.58 4.74M 243.57 5.68C 243.3 5.62 243.13 5.36 243.18 5.09 243.24 4.82 243.5 4.64 243.77 4.69 243.81 4.7 243.84 4.71 243.88 4.72 244.15 4.77 244.32 5.03 244.27 5.3 244.22 5.58 243.95 5.75 243.68 5.7 243.68 5.7 243.57 5.68 243.57 5.68M 248.55 6.73C 248.28 6.67 248.11 6.4 248.17 6.13 248.23 5.86 248.5 5.69 248.77 5.75 248.81 5.76 248.84 5.77 248.88 5.78 249.15 5.84 249.32 6.1 249.26 6.37 249.19 6.64 248.93 6.81 248.66 6.75 248.66 6.75 248.55 6.73 248.55 6.73M 253.5 7.9C 253.23 7.83 253.07 7.56 253.14 7.29 253.2 7.02 253.48 6.86 253.74 6.93 253.78 6.94 253.82 6.95 253.85 6.95 254.12 7.02 254.28 7.29 254.21 7.56 254.15 7.83 253.88 7.99 253.61 7.93 253.61 7.93 253.5 7.9 253.5 7.9M 258.43 9.18C 258.16 9.11 258 8.84 258.08 8.57 258.15 8.3 258.42 8.15 258.69 8.22 258.73 8.23 258.76 8.24 258.8 8.25 259.06 8.32 259.22 8.6 259.15 8.86 259.07 9.13 258.8 9.29 258.53 9.21 258.53 9.21 258.43 9.18 258.43 9.18M 263.32 10.58C 263.06 10.51 262.9 10.23 262.98 9.96 263.06 9.7 263.34 9.55 263.61 9.63 263.64 9.64 263.68 9.65 263.71 9.66 263.98 9.74 264.13 10.02 264.05 10.28 263.97 10.54 263.69 10.69 263.43 10.62 263.43 10.62 263.32 10.58 263.32 10.58M 268.17 12.09C 267.91 12.01 267.77 11.73 267.85 11.46 267.94 11.2 268.22 11.06 268.48 11.14 268.52 11.15 268.55 11.16 268.59 11.18 268.85 11.26 268.99 11.54 268.91 11.81 268.82 12.07 268.54 12.21 268.28 12.13 268.28 12.13 268.17 12.09 268.17 12.09M 272.99 13.71C 272.73 13.62 272.59 13.34 272.69 13.08 272.78 12.81 273.06 12.68 273.32 12.77 273.36 12.78 273.39 12.79 273.43 12.8 273.69 12.89 273.82 13.18 273.73 13.44 273.64 13.7 273.36 13.84 273.1 13.75 273.1 13.75 272.99 13.71 272.99 13.71M 277.78 15.44C 277.52 15.34 277.39 15.05 277.48 14.8 277.58 14.54 277.87 14.4 278.13 14.5 278.16 14.51 278.2 14.53 278.23 14.54 278.49 14.64 278.62 14.92 278.52 15.18 278.43 15.44 278.14 15.57 277.88 15.48 277.88 15.48 277.78 15.44 277.78 15.44M 282.52 17.27C 282.27 17.17 282.14 16.88 282.25 16.62 282.35 16.36 282.64 16.24 282.89 16.34 282.93 16.35 282.96 16.37 283 16.38 283.25 16.48 283.38 16.78 283.28 17.03 283.17 17.29 282.88 17.41 282.63 17.31 282.63 17.31 282.52 17.27 282.52 17.27M 287.23 19.21C 286.98 19.1 286.86 18.8 286.97 18.55 287.08 18.3 287.37 18.18 287.62 18.28 287.66 18.3 287.69 18.31 287.73 18.33 287.98 18.44 288.1 18.73 287.99 18.98 287.88 19.24 287.59 19.36 287.34 19.25 287.34 19.25 287.23 19.21 287.23 19.21M 291.91 21.24C 291.65 21.13 291.54 20.83 291.65 20.58 291.77 20.33 292.06 20.22 292.31 20.33 292.35 20.34 292.38 20.36 292.42 20.37 292.67 20.49 292.78 20.78 292.67 21.04 292.55 21.29 292.26 21.4 292.01 21.29 292.01 21.29 291.91 21.24 291.91 21.24M 296.52 23.37C 296.27 23.25 296.16 22.95 296.28 22.7 296.4 22.45 296.7 22.35 296.95 22.47 296.98 22.48 297.01 22.5 297.05 22.51 297.3 22.63 297.4 22.93 297.29 23.18 297.17 23.43 296.87 23.54 296.62 23.42 296.62 23.42 296.52 23.37 296.52 23.37M 301.09 25.59C 300.85 25.47 300.75 25.17 300.87 24.92 300.99 24.68 301.29 24.57 301.54 24.7 301.57 24.71 301.61 24.73 301.64 24.75 301.89 24.87 301.99 25.17 301.86 25.42 301.74 25.67 301.44 25.77 301.19 25.64 301.19 25.64 301.09 25.59 301.09 25.59M 305.63 27.91C 305.38 27.78 305.29 27.48 305.42 27.23 305.54 26.99 305.85 26.9 306.09 27.02 306.12 27.04 306.15 27.06 306.19 27.07 306.43 27.2 306.53 27.51 306.4 27.75 306.27 27.99 305.97 28.09 305.72 27.96 305.72 27.96 305.63 27.91 305.63 27.91M 310.12 30.32C 309.88 30.19 309.79 29.88 309.92 29.64 310.05 29.4 310.36 29.31 310.6 29.44 310.63 29.46 310.66 29.48 310.69 29.49 310.94 29.63 311.03 29.93 310.89 30.17 310.76 30.42 310.46 30.5 310.21 30.37 310.21 30.37 310.12 30.32 310.12 30.32M 314.56 32.81C 314.32 32.67 314.24 32.37 314.37 32.13 314.51 31.89 314.82 31.81 315.06 31.94 315.09 31.96 315.12 31.98 315.15 32 315.39 32.14 315.47 32.44 315.34 32.68 315.2 32.92 314.89 33 314.65 32.87 314.65 32.87 314.56 32.81 314.56 32.81M 318.94 35.38C 318.71 35.24 318.63 34.93 318.77 34.7 318.91 34.46 319.22 34.38 319.46 34.52 319.49 34.54 319.52 34.56 319.55 34.58 319.79 34.72 319.87 35.03 319.72 35.27 319.58 35.5 319.27 35.58 319.04 35.44 319.04 35.44 318.94 35.38 318.94 35.38M 323.29 38.04C 323.05 37.89 322.98 37.58 323.13 37.35 323.27 37.11 323.58 37.04 323.82 37.19 323.85 37.21 323.88 37.23 323.91 37.25 324.14 37.39 324.22 37.7 324.07 37.94 323.92 38.17 323.61 38.24 323.38 38.09 323.38 38.09 323.29 38.04 323.29 38.04M 327.59 40.77C 327.36 40.62 327.29 40.31 327.44 40.08 327.59 39.85 327.9 39.79 328.13 39.94 328.16 39.96 328.2 39.98 328.23 39.99 328.46 40.15 328.52 40.45 328.37 40.69 328.22 40.92 327.91 40.98 327.68 40.83 327.68 40.83 327.59 40.77 327.59 40.77M 331.84 43.58C 331.61 43.43 331.55 43.12 331.7 42.89 331.86 42.66 332.17 42.6 332.4 42.75 332.43 42.77 332.46 42.79 332.49 42.81 332.72 42.97 332.78 43.28 332.62 43.51 332.47 43.74 332.16 43.8 331.93 43.64 331.93 43.64 331.84 43.58 331.84 43.58M 336.03 46.46C 335.8 46.3 335.75 45.99 335.91 45.76 336.06 45.54 336.38 45.48 336.6 45.64 336.63 45.66 336.66 45.68 336.69 45.7 336.92 45.86 336.97 46.17 336.82 46.4 336.66 46.62 336.35 46.68 336.12 46.52 336.12 46.52 336.03 46.46 336.03 46.46M 340.18 49.41C 339.96 49.25 339.91 48.94 340.07 48.71 340.23 48.49 340.55 48.44 340.77 48.6 340.8 48.62 340.83 48.64 340.86 48.67 341.08 48.83 341.13 49.14 340.97 49.36 340.81 49.59 340.5 49.64 340.27 49.48 340.27 49.48 340.18 49.41 340.18 49.41M 344.3 52.44C 344.07 52.27 344.03 51.96 344.19 51.74 344.36 51.52 344.67 51.47 344.89 51.64 344.92 51.66 344.95 51.68 344.98 51.7 345.2 51.87 345.25 52.18 345.08 52.4 344.92 52.62 344.61 52.67 344.38 52.5 344.38 52.5 344.3 52.44 344.3 52.44M 348.34 55.51C 348.12 55.34 348.08 55.03 348.25 54.81 348.42 54.59 348.73 54.55 348.95 54.72 348.98 54.74 349.01 54.77 349.04 54.79 349.26 54.96 349.3 55.27 349.13 55.49 348.96 55.71 348.64 55.75 348.43 55.58 348.43 55.58 348.34 55.51 348.34 55.51M 352.35 58.66C 352.13 58.49 352.1 58.17 352.27 57.96 352.44 57.74 352.75 57.71 352.97 57.88 353 57.9 353.03 57.92 353.06 57.95 353.27 58.12 353.31 58.43 353.14 58.65 352.96 58.86 352.65 58.9 352.43 58.73 352.43 58.73 352.35 58.66 352.35 58.66M 356.32 61.88C 356.1 61.7 356.07 61.39 356.25 61.17 356.42 60.96 356.74 60.93 356.95 61.1 356.98 61.13 357.01 61.15 357.04 61.17 357.25 61.35 357.28 61.66 357.11 61.88 356.93 62.09 356.62 62.12 356.4 61.95 356.4 61.95 356.32 61.88 356.32 61.88M 360.22 65.13C 360.01 64.95 359.98 64.64 360.16 64.43 360.34 64.21 360.65 64.19 360.86 64.37 360.89 64.39 360.92 64.41 360.95 64.44 361.16 64.62 361.18 64.93 361.01 65.14 360.83 65.35 360.51 65.38 360.3 65.2 360.3 65.2 360.22 65.13 360.22 65.13M 364.08 68.45C 363.88 68.27 363.85 67.95 364.04 67.75 364.22 67.54 364.53 67.52 364.74 67.7 364.77 67.72 364.8 67.75 364.82 67.77 365.03 67.95 365.05 68.27 364.87 68.48 364.69 68.68 364.37 68.71 364.17 68.52 364.17 68.52 364.08 68.45 364.08 68.45M 367.91 71.83C 367.7 71.65 367.69 71.33 367.87 71.13 368.06 70.92 368.37 70.9 368.58 71.09 368.61 71.11 368.63 71.14 368.66 71.16 368.87 71.35 368.88 71.66 368.7 71.87 368.51 72.07 368.2 72.09 367.99 71.91 367.99 71.91 367.91 71.83 367.91 71.83M 371.67 75.25C 371.47 75.06 371.46 74.75 371.64 74.54 371.83 74.34 372.15 74.33 372.35 74.51 372.38 74.54 372.4 74.56 372.43 74.59 372.63 74.78 372.65 75.09 372.46 75.3 372.27 75.5 371.96 75.51 371.75 75.32 371.75 75.32 371.67 75.25 371.67 75.25M 375.41 78.73C 375.2 78.54 375.2 78.23 375.39 78.03 375.58 77.82 375.89 77.82 376.09 78.01 376.12 78.03 376.15 78.06 376.17 78.08 376.37 78.27 376.38 78.59 376.19 78.79 376 78.99 375.69 79 375.48 78.81 375.48 78.81 375.41 78.73 375.41 78.73M 379.09 82.26C 378.89 82.06 378.88 81.75 379.08 81.55 379.27 81.35 379.58 81.35 379.78 81.54 379.81 81.56 379.84 81.59 379.86 81.61 380.06 81.81 380.07 82.12 379.87 82.32 379.68 82.52 379.36 82.53 379.17 82.33 379.17 82.33 379.09 82.26 379.09 82.26M 382.72 85.82C 382.52 85.63 382.52 85.31 382.72 85.11 382.91 84.92 383.23 84.92 383.42 85.11 383.45 85.14 383.48 85.16 383.5 85.19 383.7 85.38 383.7 85.7 383.5 85.9 383.31 86.09 382.99 86.09 382.8 85.9 382.8 85.9 382.72 85.82 382.72 85.82M 386.33 89.45C 386.14 89.26 386.14 88.94 386.34 88.75 386.53 88.55 386.85 88.55 387.04 88.75 387.07 88.78 387.09 88.8 387.12 88.83 387.31 89.03 387.31 89.34 387.11 89.54 386.92 89.73 386.6 89.73 386.41 89.53 386.41 89.53 386.33 89.45 386.33 89.45M 389.86 93.09C 389.67 92.9 389.68 92.58 389.88 92.39 390.08 92.2 390.39 92.2 390.59 92.4 390.61 92.43 390.64 92.45 390.66 92.48 390.85 92.68 390.85 93 390.65 93.19 390.45 93.38 390.13 93.37 389.94 93.17 389.94 93.17 389.86 93.09 389.86 93.09M 394.81 94.49C 394.62 94.7 394.31 94.72 394.1 94.54 393.89 94.36 393.87 94.04 394.05 93.84 394.07 93.81 394.1 93.78 394.12 93.75 394.3 93.54 394.62 93.52 394.83 93.7 395.04 93.88 395.06 94.2 394.88 94.41 394.88 94.41 394.81 94.49 394.81 94.49M 398.2 90.71C 398.01 90.91 397.69 90.92 397.49 90.74 397.29 90.55 397.27 90.23 397.46 90.03 397.49 90 397.51 89.98 397.54 89.95 397.72 89.75 398.04 89.73 398.24 89.92 398.44 90.11 398.46 90.42 398.27 90.63 398.27 90.63 398.2 90.71 398.2 90.71M 401.69 87C 401.5 87.2 401.18 87.21 400.98 87.01 400.78 86.82 400.77 86.51 400.97 86.31 400.99 86.28 401.02 86.25 401.04 86.23 401.24 86.03 401.55 86.02 401.75 86.21 401.95 86.4 401.96 86.72 401.76 86.92 401.76 86.92 401.69 87 401.69 87M 405.25 83.37C 405.06 83.56 404.74 83.56 404.54 83.37 404.35 83.17 404.35 82.85 404.54 82.66 404.57 82.63 404.6 82.61 404.62 82.58 404.82 82.39 405.13 82.39 405.33 82.58 405.52 82.78 405.52 83.09 405.33 83.29 405.33 83.29 405.25 83.37 405.25 83.37M 408.88 79.79C 408.69 79.99 408.37 79.98 408.18 79.78 407.99 79.58 407.99 79.27 408.19 79.08 408.22 79.05 408.24 79.02 408.27 79 408.47 78.81 408.78 78.81 408.98 79.01 409.17 79.21 409.16 79.53 408.96 79.72 408.96 79.72 408.88 79.79 408.88 79.79M 412.58 76.28C 412.38 76.47 412.06 76.46 411.87 76.26 411.68 76.06 411.69 75.74 411.9 75.55 411.92 75.53 411.95 75.5 411.98 75.48 412.18 75.29 412.5 75.3 412.68 75.5 412.87 75.7 412.86 76.02 412.66 76.21 412.66 76.21 412.58 76.28 412.58 76.28M 416.33 72.84C 416.12 73.02 415.81 73.01 415.62 72.8 415.44 72.6 415.45 72.28 415.66 72.1 415.69 72.07 415.71 72.05 415.74 72.02 415.94 71.84 416.26 71.85 416.45 72.06 416.63 72.26 416.62 72.58 416.41 72.76 416.41 72.76 416.33 72.84 416.33 72.84M 420.13 69.45C 419.92 69.63 419.61 69.61 419.43 69.41 419.25 69.2 419.27 68.88 419.47 68.7 419.5 68.68 419.53 68.65 419.56 68.63 419.76 68.45 420.08 68.47 420.26 68.67 420.44 68.88 420.42 69.2 420.22 69.38 420.22 69.38 420.13 69.45 420.13 69.45M 423.99 66.13C 423.78 66.3 423.47 66.28 423.29 66.07 423.11 65.86 423.14 65.54 423.35 65.36 423.37 65.34 423.4 65.32 423.43 65.29 423.64 65.11 423.96 65.14 424.13 65.35 424.31 65.56 424.29 65.88 424.08 66.06 424.08 66.06 423.99 66.13 423.99 66.13M 427.91 62.86C 427.7 63.03 427.38 63 427.21 62.79 427.03 62.57 427.06 62.26 427.27 62.08 427.3 62.06 427.33 62.04 427.36 62.01 427.57 61.84 427.89 61.87 428.06 62.08 428.24 62.3 428.21 62.61 427.99 62.79 427.99 62.79 427.91 62.86 427.91 62.86M 431.87 59.66C 431.65 59.83 431.33 59.8 431.16 59.58 430.99 59.36 431.03 59.05 431.24 58.88 431.27 58.85 431.3 58.83 431.33 58.81 431.55 58.64 431.86 58.67 432.03 58.89 432.2 59.1 432.17 59.42 431.95 59.59 431.95 59.59 431.87 59.66 431.87 59.66M 435.88 56.52C 435.66 56.68 435.35 56.64 435.18 56.42 435.01 56.21 435.05 55.89 435.27 55.72 435.3 55.7 435.33 55.68 435.36 55.66 435.58 55.49 435.89 55.53 436.06 55.75 436.23 55.97 436.19 56.28 435.97 56.45 435.97 56.45 435.88 56.52 435.88 56.52M 439.94 53.44C 439.72 53.61 439.4 53.56 439.24 53.34 439.07 53.12 439.12 52.81 439.34 52.64 439.37 52.62 439.4 52.6 439.43 52.58 439.65 52.41 439.96 52.46 440.13 52.68 440.29 52.9 440.25 53.21 440.03 53.38 440.03 53.38 439.94 53.44 439.94 53.44M 444.05 50.43C 443.83 50.59 443.52 50.54 443.36 50.32 443.2 50.09 443.25 49.78 443.47 49.62 443.5 49.6 443.53 49.58 443.56 49.55 443.78 49.39 444.1 49.44 444.26 49.67 444.42 49.89 444.37 50.2 444.14 50.37 444.14 50.37 444.05 50.43 444.05 50.43M 448.21 47.49C 447.98 47.65 447.67 47.59 447.51 47.37 447.35 47.14 447.41 46.83 447.64 46.67 447.67 46.65 447.7 46.63 447.73 46.61 447.95 46.45 448.26 46.51 448.42 46.73 448.58 46.96 448.52 47.27 448.3 47.43 448.3 47.43 448.21 47.49 448.21 47.49M 452.41 44.61C 452.18 44.77 451.87 44.71 451.72 44.48 451.57 44.25 451.63 43.94 451.86 43.78 451.89 43.76 451.92 43.74 451.95 43.72 452.18 43.57 452.49 43.63 452.64 43.86 452.8 44.09 452.73 44.4 452.51 44.55 452.51 44.55 452.41 44.61 452.41 44.61M 456.67 41.81C 456.44 41.96 456.13 41.89 455.98 41.66 455.83 41.43 455.89 41.12 456.12 40.97 456.15 40.95 456.19 40.93 456.22 40.91 456.45 40.76 456.76 40.83 456.91 41.06 457.06 41.29 456.99 41.6 456.76 41.75 456.76 41.75 456.67 41.81 456.67 41.81M 460.96 39.08C 460.73 39.23 460.42 39.15 460.27 38.92 460.13 38.69 460.2 38.38 460.43 38.23 460.46 38.21 460.5 38.19 460.53 38.17 460.76 38.03 461.07 38.1 461.22 38.33 461.36 38.57 461.29 38.88 461.06 39.02 461.06 39.02 460.96 39.08 460.96 39.08M 465.31 36.42C 465.07 36.56 464.76 36.49 464.62 36.25 464.48 36.01 464.56 35.71 464.79 35.56 464.83 35.55 464.86 35.53 464.89 35.51 465.13 35.37 465.43 35.44 465.57 35.68 465.72 35.92 465.64 36.22 465.4 36.37 465.4 36.37 465.31 36.42 465.31 36.42M 469.7 33.84C 469.46 33.98 469.16 33.89 469.02 33.66 468.88 33.42 468.96 33.11 469.2 32.97 469.23 32.95 469.27 32.94 469.3 32.92 469.54 32.78 469.84 32.86 469.98 33.1 470.12 33.34 470.04 33.65 469.8 33.78 469.8 33.78 469.7 33.84 469.7 33.84M 474.13 31.34C 473.89 31.47 473.59 31.38 473.45 31.14 473.32 30.9 473.41 30.6 473.65 30.46 473.68 30.45 473.71 30.43 473.75 30.41 473.99 30.28 474.29 30.36 474.42 30.61 474.56 30.85 474.47 31.15 474.23 31.29 474.23 31.29 474.13 31.34 474.13 31.34M 478.61 28.92C 478.37 29.05 478.06 28.95 477.94 28.71 477.81 28.46 477.9 28.16 478.14 28.03 478.18 28.02 478.21 28 478.24 27.98 478.49 27.85 478.79 27.95 478.92 28.19 479.05 28.43 478.95 28.74 478.71 28.87 478.71 28.87 478.61 28.92 478.61 28.92M 483.14 26.58C 482.89 26.7 482.59 26.6 482.46 26.36 482.34 26.11 482.44 25.81 482.68 25.68 482.72 25.67 482.75 25.65 482.78 25.63 483.03 25.51 483.33 25.61 483.45 25.86 483.58 26.1 483.48 26.4 483.23 26.53 483.23 26.53 483.14 26.58 483.14 26.58M 487.7 24.32C 487.45 24.44 487.16 24.34 487.04 24.09 486.92 23.84 487.02 23.54 487.27 23.42 487.3 23.41 487.34 23.39 487.37 23.37 487.62 23.25 487.92 23.36 488.04 23.61 488.16 23.86 488.05 24.15 487.8 24.27 487.8 24.27 487.7 24.32 487.7 24.32M 492.31 22.16C 492.06 22.27 491.76 22.16 491.65 21.91 491.53 21.66 491.64 21.36 491.89 21.25 491.92 21.23 491.96 21.22 491.99 21.2 492.24 21.09 492.54 21.2 492.65 21.45 492.77 21.7 492.66 22 492.41 22.11 492.41 22.11 492.31 22.16 492.31 22.16M 496.95 20.08C 496.7 20.19 496.41 20.08 496.3 19.82 496.19 19.57 496.3 19.28 496.56 19.17 496.59 19.15 496.62 19.14 496.66 19.12 496.91 19.01 497.2 19.13 497.31 19.38 497.42 19.63 497.31 19.93 497.06 20.04 497.06 20.04 496.95 20.08 496.95 20.08M 501.64 18.1C 501.39 18.21 501.1 18.08 500.99 17.83 500.89 17.57 501.01 17.28 501.26 17.18 501.3 17.16 501.33 17.15 501.36 17.13 501.62 17.03 501.91 17.15 502.02 17.41 502.12 17.66 502 17.95 501.74 18.06 501.74 18.06 501.64 18.1 501.64 18.1M 506.37 16.21C 506.11 16.31 505.82 16.19 505.72 15.93 505.62 15.67 505.75 15.38 506.01 15.28 506.04 15.27 506.08 15.25 506.11 15.24 506.37 15.14 506.66 15.27 506.76 15.53 506.86 15.78 506.73 16.07 506.47 16.17 506.47 16.17 506.37 16.21 506.37 16.21M 511.14 14.42C 510.88 14.52 510.59 14.39 510.5 14.13 510.4 13.87 510.54 13.58 510.8 13.48 510.83 13.47 510.86 13.46 510.9 13.45 511.16 13.35 511.45 13.49 511.54 13.75 511.63 14.01 511.5 14.29 511.24 14.39 511.24 14.39 511.14 14.42 511.14 14.42M 515.94 12.74C 515.68 12.83 515.39 12.69 515.3 12.42 515.22 12.16 515.36 11.88 515.62 11.79 515.65 11.78 515.69 11.77 515.72 11.75 515.98 11.67 516.27 11.81 516.36 12.07 516.44 12.33 516.3 12.61 516.04 12.7 516.04 12.7 515.94 12.74 515.94 12.74M 520.77 11.15C 520.51 11.24 520.23 11.09 520.15 10.83 520.06 10.56 520.21 10.28 520.47 10.2 520.51 10.19 520.54 10.18 520.58 10.17 520.84 10.08 521.12 10.23 521.2 10.49 521.29 10.76 521.14 11.04 520.88 11.12 520.88 11.12 520.77 11.15 520.77 11.15M 525.64 9.68C 525.37 9.75 525.1 9.6 525.02 9.34 524.94 9.07 525.09 8.79 525.36 8.72 525.4 8.71 525.43 8.69 525.47 8.68 525.73 8.61 526.01 8.76 526.09 9.02 526.16 9.29 526.01 9.57 525.74 9.64 525.74 9.64 525.64 9.68 525.64 9.68M 530.54 8.31C 530.27 8.38 530 8.22 529.93 7.95 529.86 7.69 530.01 7.41 530.28 7.34 530.32 7.33 530.35 7.32 530.39 7.31 530.65 7.24 530.93 7.4 531 7.67 531.07 7.93 530.91 8.21 530.64 8.28 530.64 8.28 530.54 8.31 530.54 8.31M 535.47 7.05C 535.2 7.11 534.93 6.95 534.86 6.68 534.8 6.41 534.96 6.14 535.23 6.08 535.27 6.07 535.3 6.06 535.34 6.05 535.61 5.98 535.88 6.15 535.94 6.42 536.01 6.69 535.84 6.96 535.57 7.02 535.57 7.02 535.47 7.05 535.47 7.05M 540.42 5.9C 540.15 5.96 539.89 5.79 539.83 5.52 539.77 5.25 539.94 4.98 540.21 4.92 540.25 4.92 540.28 4.91 540.32 4.9 540.59 4.84 540.85 5.01 540.91 5.28 540.97 5.55 540.8 5.82 540.53 5.88 540.53 5.88 540.42 5.9 540.42 5.9M 545.41 4.87C 545.13 4.92 544.87 4.75 544.82 4.48 544.77 4.2 544.94 3.94 545.21 3.89 545.25 3.88 545.29 3.87 545.32 3.87 545.59 3.82 545.86 3.99 545.91 4.26 545.96 4.53 545.78 4.8 545.51 4.85 545.51 4.85 545.41 4.87 545.41 4.87M 550.41 3.96C 550.14 4 549.88 3.82 549.83 3.55 549.79 3.28 549.97 3.02 550.24 2.97 550.28 2.97 550.32 2.96 550.35 2.95 550.62 2.91 550.88 3.09 550.93 3.36 550.97 3.63 550.79 3.89 550.52 3.94 550.52 3.94 550.41 3.96 550.41 3.96M 555.43 3.16C 555.16 3.2 554.91 3.01 554.87 2.74 554.83 2.47 555.02 2.21 555.29 2.17 555.33 2.17 555.36 2.16 555.4 2.16 555.67 2.12 555.93 2.31 555.97 2.58 556.01 2.86 555.82 3.11 555.54 3.15 555.54 3.15 555.43 3.16 555.43 3.16M 560.48 2.49C 560.2 2.53 559.95 2.33 559.92 2.06 559.89 1.78 560.08 1.53 560.36 1.5 560.39 1.5 560.43 1.49 560.47 1.49 560.74 1.45 560.99 1.65 561.02 1.92 561.06 2.2 560.86 2.45 560.59 2.48 560.59 2.48 560.48 2.49 560.48 2.49M 565.53 1.94C 565.26 1.97 565.01 1.77 564.99 1.49 564.96 1.22 565.16 0.97 565.44 0.95 565.47 0.94 565.51 0.94 565.55 0.94 565.82 0.91 566.07 1.11 566.09 1.39 566.12 1.66 565.92 1.91 565.64 1.93 565.64 1.93 565.53 1.94 565.53 1.94M 570.6 1.52C 570.33 1.54 570.09 1.33 570.07 1.06 570.05 0.78 570.25 0.54 570.53 0.52 570.57 0.52 570.6 0.52 570.64 0.51 570.91 0.49 571.15 0.7 571.17 0.98 571.19 1.25 570.98 1.49 570.71 1.51 570.71 1.51 570.6 1.52 570.6 1.52M 575.68 1.22C 575.4 1.23 575.17 1.02 575.15 0.74 575.14 0.47 575.35 0.23 575.63 0.22 575.67 0.22 575.7 0.22 575.74 0.22 576.02 0.2 576.25 0.42 576.26 0.69 576.27 0.97 576.06 1.2 575.79 1.21 575.79 1.21 575.68 1.22 575.68 1.22M 580.76 1.05C 580.48 1.05 580.25 0.83 580.25 0.56 580.24 0.28 580.46 0.05 580.74 0.05 580.77 0.05 580.81 0.04 580.85 0.04 581.12 0.04 581.35 0.26 581.36 0.53 581.36 0.81 581.14 1.04 580.87 1.04 580.87 1.04 580.76 1.05 580.76 1.05M 585.84 1C 585.57 1 585.34 0.77 585.34 0.5 585.34 0.22 585.57-0 585.85-0 585.88-0 585.92-0 585.96-0 586.23 0 586.45 0.23 586.45 0.5 586.45 0.78 586.23 1 585.95 1 585.95 1 585.84 1 585.84 1M 590.93 1.08C 590.65 1.07 590.43 0.84 590.44 0.57 590.45 0.29 590.68 0.07 590.95 0.08 590.99 0.08 591.03 0.08 591.06 0.08 591.34 0.09 591.56 0.32 591.55 0.6 591.54 0.87 591.31 1.09 591.04 1.08 591.04 1.08 590.93 1.08 590.93 1.08M 596.01 1.29C 595.73 1.27 595.52 1.04 595.53 0.76 595.55 0.49 595.78 0.27 596.06 0.29 596.1 0.29 596.13 0.29 596.17 0.3 596.45 0.31 596.66 0.55 596.64 0.82 596.63 1.1 596.39 1.31 596.12 1.29 596.12 1.29 596.01 1.29 596.01 1.29M 601.08 1.62C 600.81 1.6 600.6 1.36 600.62 1.08 600.64 0.81 600.88 0.6 601.16 0.63 601.2 0.63 601.23 0.63 601.27 0.63 601.54 0.66 601.75 0.9 601.73 1.17 601.71 1.45 601.46 1.65 601.19 1.63 601.19 1.63 601.08 1.62 601.08 1.62M 606.14 2.08C 605.87 2.06 605.67 1.81 605.7 1.54 605.73 1.26 605.97 1.06 606.25 1.09 606.28 1.09 606.32 1.1 606.36 1.1 606.63 1.13 606.83 1.38 606.8 1.65 606.77 1.92 606.53 2.12 606.25 2.1 606.25 2.1 606.14 2.08 606.14 2.08M 611.2 2.67C 610.92 2.64 610.73 2.39 610.76 2.11 610.8 1.84 611.05 1.64 611.32 1.68 611.36 1.68 611.4 1.69 611.43 1.69 611.71 1.73 611.9 1.98 611.86 2.25 611.83 2.53 611.58 2.72 611.3 2.69 611.3 2.69 611.2 2.67 611.2 2.67M 616.23 3.38C 615.96 3.34 615.77 3.09 615.81 2.81 615.86 2.54 616.11 2.35 616.38 2.4 616.42 2.4 616.46 2.41 616.49 2.41 616.77 2.45 616.95 2.71 616.91 2.98 616.87 3.26 616.61 3.44 616.34 3.4 616.34 3.4 616.23 3.38 616.23 3.38M 621.25 4.22C 620.98 4.17 620.8 3.91 620.85 3.64 620.9 3.37 621.15 3.19 621.43 3.24 621.46 3.24 621.5 3.25 621.53 3.25 621.81 3.3 621.99 3.56 621.94 3.84 621.89 4.11 621.63 4.29 621.36 4.24 621.36 4.24 621.25 4.22 621.25 4.22M 626.24 5.18C 625.97 5.12 625.8 4.86 625.85 4.59 625.91 4.32 626.17 4.14 626.44 4.2 626.48 4.2 626.52 4.21 626.55 4.22 626.82 4.27 627 4.54 626.94 4.81 626.89 5.08 626.62 5.25 626.35 5.2 626.35 5.2 626.24 5.18 626.24 5.18M 631.21 6.25C 630.94 6.19 630.78 5.92 630.84 5.66 630.9 5.39 631.17 5.22 631.44 5.28 631.47 5.29 631.51 5.3 631.54 5.3 631.81 5.37 631.98 5.63 631.92 5.9 631.86 6.17 631.59 6.34 631.32 6.28 631.32 6.28 631.21 6.25 631.21 6.25M 636.15 7.45C 635.89 7.38 635.72 7.11 635.79 6.84 635.86 6.57 636.13 6.41 636.4 6.48 636.44 6.49 636.47 6.5 636.51 6.51 636.78 6.58 636.94 6.85 636.87 7.12 636.8 7.38 636.53 7.54 636.26 7.48 636.26 7.48 636.15 7.45 636.15 7.45M 641.07 8.76C 640.8 8.69 640.65 8.41 640.72 8.14 640.79 7.88 641.07 7.72 641.34 7.8 641.37 7.81 641.41 7.82 641.44 7.83 641.71 7.9 641.86 8.18 641.79 8.44 641.71 8.71 641.44 8.86 641.17 8.79 641.17 8.79 641.07 8.76 641.07 8.76M 645.95 10.19C 645.68 10.11 645.53 9.83 645.62 9.56 645.7 9.3 645.98 9.15 646.24 9.23 646.27 9.24 646.31 9.25 646.34 9.26 646.61 9.34 646.76 9.62 646.68 9.89 646.6 10.15 646.32 10.3 646.05 10.22 646.05 10.22 645.95 10.19 645.95 10.19M 650.8 11.72C 650.53 11.64 650.39 11.35 650.48 11.09 650.56 10.83 650.85 10.69 651.11 10.77 651.14 10.78 651.18 10.8 651.21 10.81 651.48 10.89 651.62 11.18 651.53 11.44 651.45 11.7 651.16 11.84 650.9 11.76 650.9 11.76 650.8 11.72 650.8 11.72M 655.61 13.37C 655.35 13.28 655.22 12.99 655.31 12.73 655.4 12.47 655.69 12.33 655.95 12.43 655.98 12.44 656.01 12.45 656.05 12.46 656.31 12.55 656.45 12.84 656.35 13.1 656.26 13.36 655.98 13.5 655.71 13.4 655.71 13.4 655.61 13.37 655.61 13.37M 660.39 15.12C 660.13 15.02 660 14.73 660.1 14.48 660.2 14.22 660.49 14.09 660.75 14.18 660.78 14.2 660.81 14.21 660.85 14.22 661.11 14.32 661.24 14.61 661.14 14.87 661.04 15.13 660.75 15.26 660.49 15.16 660.49 15.16 660.39 15.12 660.39 15.12M 665.13 16.98C 664.88 16.87 664.75 16.58 664.86 16.33 664.96 16.07 665.25 15.95 665.51 16.05 665.54 16.06 665.58 16.08 665.61 16.09 665.87 16.19 665.99 16.48 665.89 16.74 665.78 17 665.49 17.12 665.24 17.02 665.24 17.02 665.13 16.98 665.13 16.98M 669.83 18.93C 669.58 18.82 669.46 18.53 669.57 18.27 669.68 18.02 669.97 17.9 670.23 18.01 670.26 18.03 670.29 18.04 670.33 18.05 670.58 18.16 670.7 18.46 670.59 18.71 670.48 18.97 670.19 19.08 669.93 18.97 669.93 18.97 669.83 18.93 669.83 18.93M 674.48 20.98C 674.23 20.87 674.12 20.57 674.23 20.32 674.35 20.07 674.64 19.96 674.9 20.07 674.93 20.08 674.96 20.1 675 20.11 675.25 20.23 675.36 20.53 675.25 20.78 675.13 21.03 674.84 21.14 674.58 21.03 674.58 21.03 674.48 20.98 674.48 20.98M 679.1 23.13C 678.85 23.01 678.74 22.71 678.86 22.46 678.98 22.21 679.28 22.1 679.53 22.22 679.56 22.24 679.59 22.25 679.63 22.27 679.88 22.39 679.98 22.69 679.86 22.94 679.74 23.19 679.44 23.29 679.2 23.17 679.2 23.17 679.1 23.13 679.1 23.13M 683.67 25.36C 683.42 25.24 683.32 24.94 683.45 24.69 683.57 24.45 683.87 24.35 684.12 24.47 684.15 24.49 684.18 24.5 684.22 24.52 684.46 24.64 684.56 24.94 684.44 25.19 684.31 25.44 684.01 25.54 683.77 25.41 683.77 25.41 683.67 25.36 683.67 25.36M 688.2 27.69C 687.96 27.56 687.86 27.26 687.99 27.02 688.12 26.77 688.42 26.68 688.67 26.81 688.7 26.82 688.73 26.84 688.76 26.86 689.01 26.99 689.1 27.29 688.97 27.53 688.85 27.78 688.54 27.87 688.3 27.74 688.3 27.74 688.2 27.69 688.2 27.69M 692.69 30.11C 692.45 29.97 692.36 29.67 692.49 29.43 692.62 29.18 692.93 29.1 693.17 29.23 693.2 29.25 693.24 29.27 693.27 29.28 693.51 29.42 693.6 29.72 693.46 29.96 693.33 30.2 693.03 30.29 692.79 30.16 692.79 30.16 692.69 30.11 692.69 30.11M 697.12 32.6C 696.88 32.46 696.8 32.15 696.93 31.91 697.07 31.67 697.38 31.59 697.62 31.73 697.65 31.75 697.68 31.77 697.71 31.78 697.95 31.92 698.04 32.23 697.9 32.47 697.76 32.71 697.45 32.79 697.22 32.65 697.22 32.65 697.12 32.6 697.12 32.6M 701.51 35.17C 701.27 35.03 701.2 34.72 701.34 34.48 701.48 34.25 701.79 34.17 702.02 34.31 702.06 34.33 702.09 34.35 702.12 34.37 702.36 34.51 702.43 34.82 702.29 35.05 702.15 35.29 701.84 35.37 701.6 35.23 701.6 35.23 701.51 35.17 701.51 35.17M 705.86 37.82C 705.63 37.68 705.56 37.37 705.7 37.13 705.85 36.9 706.16 36.83 706.39 36.97 706.42 36.99 706.45 37.01 706.48 37.03 706.72 37.18 706.79 37.49 706.64 37.72 706.5 37.96 706.19 38.03 705.96 37.88 705.96 37.88 705.86 37.82 705.86 37.82M 710.17 40.55C 709.94 40.4 709.87 40.09 710.02 39.86 710.17 39.63 710.48 39.56 710.71 39.71 710.74 39.73 710.78 39.75 710.81 39.77 711.04 39.92 711.11 40.23 710.96 40.46 710.81 40.7 710.5 40.76 710.26 40.61 710.26 40.61 710.17 40.55 710.17 40.55M 714.42 43.34C 714.19 43.19 714.13 42.88 714.28 42.65 714.43 42.42 714.74 42.36 714.97 42.51 715 42.53 715.04 42.55 715.07 42.57 715.3 42.73 715.36 43.04 715.2 43.27 715.05 43.5 714.74 43.56 714.51 43.41 714.51 43.41 714.42 43.34 714.42 43.34M 718.63 46.21C 718.4 46.05 718.34 45.74 718.5 45.51 718.66 45.29 718.97 45.23 719.2 45.39 719.23 45.41 719.26 45.43 719.29 45.45 719.51 45.61 719.57 45.92 719.41 46.15 719.26 46.37 718.94 46.43 718.72 46.27 718.72 46.27 718.63 46.21 718.63 46.21M 722.8 49.15C 722.58 48.99 722.53 48.68 722.69 48.45 722.85 48.23 723.16 48.18 723.38 48.34 723.41 48.36 723.44 48.38 723.47 48.4 723.7 48.56 723.75 48.87 723.59 49.1 723.43 49.32 723.12 49.37 722.89 49.21 722.89 49.21 722.8 49.15 722.8 49.15M 726.92 52.14C 726.69 51.98 726.65 51.67 726.81 51.44 726.98 51.22 727.29 51.17 727.51 51.34 727.54 51.36 727.57 51.38 727.6 51.4 727.82 51.57 727.87 51.88 727.7 52.1 727.54 52.33 727.23 52.37 727.01 52.21 727.01 52.21 726.92 52.14 726.92 52.14M 730.99 55.2C 730.77 55.03 730.72 54.72 730.89 54.5 731.06 54.28 731.37 54.23 731.59 54.4 731.62 54.42 731.65 54.45 731.68 54.47 731.9 54.64 731.94 54.95 731.77 55.17 731.61 55.39 731.29 55.43 731.07 55.26 731.07 55.26 730.99 55.2 730.99 55.2M 735.02 58.32C 734.81 58.15 734.77 57.84 734.94 57.62 735.11 57.4 735.42 57.36 735.64 57.53 735.67 57.56 735.7 57.58 735.73 57.6 735.94 57.77 735.98 58.09 735.81 58.3 735.64 58.52 735.33 58.56 735.11 58.39 735.11 58.39 735.02 58.32 735.02 58.32M 739.01 61.5C 738.79 61.32 738.76 61.01 738.93 60.79 739.11 60.58 739.42 60.54 739.64 60.72 739.67 60.74 739.69 60.76 739.72 60.79 739.94 60.96 739.97 61.28 739.8 61.49 739.62 61.71 739.31 61.74 739.09 61.56 739.09 61.56 739.01 61.5 739.01 61.5M 742.94 64.72C 742.73 64.54 742.7 64.23 742.88 64.02 743.06 63.8 743.37 63.77 743.58 63.95 743.61 63.97 743.64 64 743.67 64.02 743.88 64.2 743.91 64.51 743.73 64.73 743.56 64.94 743.24 64.97 743.03 64.79 743.03 64.79 742.94 64.72 742.94 64.72M 746.85 68.01C 746.64 67.83 746.62 67.52 746.8 67.31 746.97 67.1 747.29 67.07 747.5 67.25 747.53 67.27 747.56 67.3 747.58 67.32 747.79 67.5 747.82 67.82 747.64 68.03 747.46 68.24 747.14 68.26 746.93 68.08 746.93 68.08 746.85 68.01 746.85 68.01M 750.7 71.34C 750.49 71.16 750.47 70.84 750.66 70.64 750.84 70.43 751.15 70.41 751.36 70.59 751.39 70.61 751.42 70.64 751.44 70.66 751.65 70.84 751.67 71.16 751.49 71.37 751.31 71.57 750.99 71.6 750.79 71.41 750.79 71.41 750.7 71.34 750.7 71.34M 754.51 74.72C 754.31 74.54 754.29 74.22 754.47 74.01 754.66 73.81 754.97 73.79 755.18 73.98 755.21 74 755.23 74.03 755.26 74.05 755.47 74.23 755.48 74.55 755.3 74.76 755.11 74.96 754.8 74.98 754.59 74.79 754.59 74.79 754.51 74.72 754.51 74.72M 758.3 78.16C 758.09 77.98 758.08 77.66 758.27 77.46 758.45 77.25 758.77 77.24 758.97 77.43 759 77.45 759.03 77.48 759.05 77.5 759.26 77.69 759.27 78 759.08 78.21 758.89 78.41 758.58 78.42 758.38 78.24 758.38 78.24 758.3 78.16 758.3 78.16M 762.01 81.63C 761.81 81.44 761.8 81.12 761.99 80.92 762.18 80.72 762.5 80.71 762.7 80.9 762.72 80.92 762.75 80.95 762.78 80.97 762.98 81.16 762.99 81.48 762.8 81.68 762.61 81.88 762.29 81.89 762.09 81.7 762.09 81.7 762.01 81.63 762.01 81.63M 765.7 85.15C 765.5 84.96 765.5 84.64 765.69 84.44 765.88 84.24 766.2 84.24 766.4 84.43 766.42 84.45 766.45 84.48 766.48 84.5 766.67 84.7 766.68 85.01 766.49 85.21 766.3 85.41 765.98 85.42 765.78 85.22 765.78 85.22 765.7 85.15 765.7 85.15M 769.36 88.71C 769.16 88.52 769.16 88.2 769.35 88.01 769.55 87.81 769.86 87.81 770.06 88 770.09 88.03 770.11 88.05 770.14 88.08 770.33 88.27 770.34 88.59 770.14 88.79 769.95 88.98 769.63 88.99 769.44 88.79 769.44 88.79 769.36 88.71 769.36 88.71M 772.96 92.31C 772.76 92.11 772.76 91.79 772.96 91.6 773.16 91.41 773.47 91.41 773.67 91.6 773.69 91.63 773.72 91.66 773.74 91.68 773.94 91.88 773.94 92.19 773.74 92.39 773.55 92.58 773.23 92.58 773.03 92.39 773.03 92.39 772.96 92.31 772.96 92.31" fill="rgb(255,255,255)" opacity="0.50"/></svg>