<svg xmlns="http://www.w3.org/2000/svg" width="62" height="59"><path d="M62 29l-1 1a5 5 0 0 1-2 3l-1 1v1l1 2-1 2v1a9 9 0 0 1-3 2l1 2a5 5 0 0 1 0 3l-1 2-1 1h-2l1 2a5 5 0 0 1 0 4l-1 1-2 1-2 1H29h-2l-3-1-2-1a74 74 0 0 0-9-4H0V26h15l2-2 3-2 4-3c3-2 4-5 5-9a88 88 0 0 0 1-8l1-1 2-1h3l2 2 2 2v5a29 29 0 0 1-1 8l-1 4-1 3h19a6 6 0 0 1 4 1l1 2 1 2zm-6 3l2-1 1-1v-1l-1-2-2-1h-8-15l1-2c3-6 4-12 4-15l-1-6-3-1-1 1-1 1a40 40 0 0 1-1 7l-2 5-4 5-4 3-3 3-3 1h-3-9v23h10l3 1a223 223 0 0 1 9 4h2l2 1h19l1-1h1l1-1v-1-2h-1l-1-1h-1v-3h5v-1l1-2-1-1v-1h-1l-1-1h-1v-2h4l1-1 1-1v-1-1l-1-1-1-1h-1-1v-2h4z" fill="#00A2FF"/></svg>