<svg xmlns="http://www.w3.org/2000/svg" width="325.316" height="38.219" viewBox="0 0 325.316 38.219">
  <defs>
    <style>
      .cls-1 {
        fill: #fff;
        fill-rule: evenodd;
      }
    </style>
  </defs>
  <path id="Bhromaon" class="cls-1" d="M755.521,299.376a8.412,8.412,0,0,0,3.12-3.192,9.4,9.4,0,0,0,1.1-4.632,7.589,7.589,0,0,0-3.216-6.6q-3.216-2.28-8.832-2.28H737.329V318h11.76a14.77,14.77,0,0,0,8.808-2.52q3.528-2.52,3.528-7.9a7.842,7.842,0,0,0-1.56-4.824,11.162,11.162,0,0,0-4.344-3.384h0Zm-11.232-9.984h3.744a5.259,5.259,0,0,1,3.312.936,3.234,3.234,0,0,1,1.2,2.712,4.187,4.187,0,0,1-1.056,2.9,3.79,3.79,0,0,1-2.976,1.176h-4.224v-7.728Zm4.464,22.128h-4.464v-7.68h3.984q5.952,0,5.952,3.744a3.288,3.288,0,0,1-1.512,2.952,7.153,7.153,0,0,1-3.96.984h0ZM802.9,282.672h-6.96v14.256H780.144V282.672h-6.96V318h6.96V303.648h15.792V318h6.96V282.672ZM843.984,318l-8.208-12.816a10.153,10.153,0,0,0,4.2-4.488,13.982,13.982,0,0,0,1.368-6.12,11.015,11.015,0,0,0-3.624-8.712q-3.624-3.192-10.2-3.192h-10.7V318h6.96V306.768h4.656L835.872,318h8.112Zm-20.208-28.608h4.992q3.168,0,4.272,1.752a6.784,6.784,0,0,1,1.1,3.672,5.689,5.689,0,0,1-1.3,3.576,4.919,4.919,0,0,1-4.128,1.656h-4.944V289.392Zm27.408,10.992a17.5,17.5,0,0,0,2.424,9.024,18.085,18.085,0,0,0,6.552,6.552,17.964,17.964,0,0,0,18.024,0,18.437,18.437,0,0,0,6.624-6.552,17.619,17.619,0,0,0,0-18,18.727,18.727,0,0,0-6.624-6.648,17.619,17.619,0,0,0-18,0,18.318,18.318,0,0,0-6.576,6.648,17.582,17.582,0,0,0-2.424,8.976h0Zm7.2,0a11.658,11.658,0,0,1,1.44-5.76,10.95,10.95,0,0,1,3.912-4.1,10.745,10.745,0,0,1,10.992,0,10.958,10.958,0,0,1,3.912,4.1,12.278,12.278,0,0,1,.048,11.448,10.709,10.709,0,0,1-3.84,4.08,10.118,10.118,0,0,1-5.424,1.512,10.661,10.661,0,0,1-5.592-1.512,11.022,11.022,0,0,1-3.984-4.1,11.311,11.311,0,0,1-1.464-5.664h0Zm76.943-19.152-18.336,25.392-17.9-25.392h-0.048V318h6.72V302.208l11.088,15.312h0.1l11.52-16.368V318h6.96V281.232h-0.1ZM969.551,318h8.064l-15.936-36.72H961.3L945.359,318h6.864l2.88-6.912h11.712Zm-12-12.768,3.552-8.592,3.408,8.592h-6.96Zm25.441-4.848a17.492,17.492,0,0,0,2.424,9.024,18.085,18.085,0,0,0,6.552,6.552,17.961,17.961,0,0,0,18.022,0,18.438,18.438,0,0,0,6.63-6.552,17.632,17.632,0,0,0,0-18,18.727,18.727,0,0,0-6.63-6.648,17.616,17.616,0,0,0-18,0,18.311,18.311,0,0,0-6.576,6.648,17.572,17.572,0,0,0-2.424,8.976h0Zm7.2,0a11.658,11.658,0,0,1,1.44-5.76,10.95,10.95,0,0,1,3.912-4.1,10.752,10.752,0,0,1,11,0,11.015,11.015,0,0,1,3.91,4.1,11.658,11.658,0,0,1,1.44,5.76,11.827,11.827,0,0,1-1.39,5.688,10.732,10.732,0,0,1-3.84,4.08,10.143,10.143,0,0,1-5.43,1.512,10.657,10.657,0,0,1-5.59-1.512,11.014,11.014,0,0,1-3.984-4.1,11.311,11.311,0,0,1-1.464-5.664h0Zm65.468-17.712,0.15,21.264-24.67-22.656h-0.29V318h7.05l-0.14-20.88,24.72,22.32h0.19V282.672h-7.01Z" transform="translate(-737.344 -281.219)"/>
</svg>
